<mxfile host="app.diagrams.net" modified="2023-06-02T11:44:22.996Z" agent="Mozilla/5.0 (Windows NT 10.0; WOW64) AppleWebKit/537.36 (KHTML, like Gecko) Chrome/94.0.4606.71 Safari/537.36" version="21.3.4" etag="Qa860wP8jw2WzTGo3dxc" type="github">
  <diagram name="第 1 页" id="ZpOcNx6irWhhlP2ZK6mO">
    <mxGraphModel>
      <root>
        <mxCell id="0" />
        <mxCell id="1" parent="0" />
      </root>
    </mxGraphModel>
  </diagram>
</mxfile>
